<?xml version="1.0" standalone="no"?>
<!DOCTYPE svg PUBLIC "-//W3C//DTD SVG 20010904//EN"
 "http://www.w3.org/TR/2001/REC-SVG-20010904/DTD/svg10.dtd">
<svg version="1.0" xmlns="http://www.w3.org/2000/svg"
 width="500.000000pt" height="500.000000pt" viewBox="0 0 500.000000 500.000000"
 preserveAspectRatio="xMidYMid meet">
<metadata>
Created by potrace 1.14, written by Peter Selinger 2001-2017
</metadata>
<g transform="translate(0.000000,500.000000) scale(0.100000,-0.100000)"
fill="#000000" stroke="none">
<path d="M2019 3556 c-2 -2 -40 -6 -84 -10 -74 -5 -96 -8 -172 -21 -298 -49
-512 -157 -548 -275 -5 -14 -9 -34 -11 -45 -1 -11 -5 -38 -8 -60 -22 -158 -29
-236 -29 -350 0 -221 24 -338 101 -492 l31 -61 -42 -17 c-23 -9 -85 -31 -137
-49 -92 -30 -95 -32 -98 -63 l-3 -32 38 15 c41 18 222 73 259 80 17 3 32 -11
75 -69 232 -311 628 -537 944 -538 156 0 358 52 530 139 48 24 119 71 199 132
23 18 43 27 50 22 6 -5 32 -16 57 -26 34 -12 50 -25 59 -46 14 -33 8 -71 -15
-94 -22 -21 -163 -74 -238 -88 -36 -7 -63 -16 -61 -20 10 -16 123 -8 190 13
134 41 176 79 168 155 -3 31 -1 33 16 24 23 -12 60 -58 60 -75 0 -24 -43 -66
-93 -91 -87 -45 -297 -98 -467 -118 -19 -2 -64 -8 -100 -12 -81 -10 -686 -12
-797 -2 -195 17 -456 63 -501 88 -10 5 -38 18 -64 29 -49 20 -72 47 -84 96 -6
28 -4 27 29 -16 20 -26 55 -56 79 -68 51 -24 138 -38 193 -31 39 5 37 6 -40
24 -135 31 -225 94 -211 149 3 12 22 47 43 77 35 50 44 56 105 75 81 24 89 31
45 37 -34 4 -185 -34 -258 -65 -194 -81 -202 -195 -20 -291 56 -29 227 -87
295 -100 12 -2 50 -9 86 -16 183 -34 259 -38 715 -38 253 0 485 3 515 8 240
37 358 68 463 123 187 98 145 228 -105 322 l-46 17 42 57 c24 31 55 77 70 104
27 45 30 47 72 47 24 0 44 -4 44 -8 0 -5 37 -23 83 -42 198 -80 346 -188 385
-282 21 -49 20 -114 -4 -159 -8 -16 -34 -48 -58 -72 -50 -50 -57 -55 -116 -90
l-45 -27 47 0 c64 0 85 10 146 69 131 127 135 273 11 402 -63 66 -132 112
-254 171 l-108 51 74 18 c96 25 192 83 265 161 130 139 176 250 180 438 3 131
-11 212 -56 305 -85 180 -277 249 -450 163 -36 -18 -68 -34 -71 -36 -4 -1 -12
11 -19 28 -18 44 -75 101 -142 144 -54 34 -206 101 -252 110 -12 3 -37 10 -56
16 -84 26 -219 52 -345 66 -27 3 -61 8 -75 10 -30 6 -475 15 -481 10z m521
-69 c14 -3 59 -11 100 -16 410 -57 714 -215 685 -354 -4 -18 -14 -40 -23 -50
-15 -17 -16 -16 -30 15 -8 18 -14 37 -13 41 2 12 -32 67 -42 67 -9 0 -2 -16
22 -44 9 -11 -6 -1 -34 21 -179 147 -544 236 -970 237 -111 0 -255 -9 -315
-19 -14 -2 -42 -6 -62 -9 -111 -17 -234 -54 -322 -98 -68 -34 -151 -115 -177
-172 l-17 -39 -27 29 c-67 72 -66 138 5 205 87 83 321 159 565 185 33 4 62 8
64 10 7 6 562 -3 591 -9z m60 -186 c-30 -19 -189 -33 -404 -36 -237 -4 -283
-8 -391 -32 -107 -24 -241 -90 -299 -149 -9 -8 -16 -11 -16 -6 0 17 110 99
174 130 134 65 259 89 486 91 79 1 145 3 147 4 1 1 73 4 160 5 101 1 153 -1
143 -7z m294 -77 c20 -3 38 -10 41 -14 6 -10 -94 16 -104 26 -3 4 2 4 11 1 9
-3 33 -9 52 -13z m832 -63 c75 -40 119 -92 152 -182 58 -158 46 -358 -30 -502
-18 -33 -63 -93 -100 -132 -79 -84 -173 -137 -283 -160 -92 -19 -165 -25 -165
-14 0 5 6 9 13 9 25 0 112 29 132 44 22 17 21 17 -88 -17 -34 -11 -47 -12 -44
-4 38 96 37 95 80 106 44 11 157 78 157 92 0 5 -22 -5 -48 -21 -27 -16 -66
-37 -88 -46 l-39 -16 20 21 c10 12 59 43 109 68 131 68 200 144 221 243 11 51
7 215 -6 259 -32 108 -129 142 -243 86 -16 -8 -32 -12 -37 -9 -18 11 -8 43 19
64 l27 22 -27 -16 c-23 -14 -27 -14 -32 0 -10 27 -7 31 39 53 25 12 45 23 45
26 0 7 -60 -16 -66 -26 -7 -12 -24 -12 -24 0 0 17 62 55 109 67 63 17 149 11
197 -15z m-1514 -22 c-7 -7 -52 -13 -167 -24 -140 -13 -178 -18 -269 -36 -55
-11 -107 -24 -117 -30 -22 -12 -32 -12 -24 0 11 18 178 65 280 78 122 15 309
23 297 12z m-925 -92 c4 -7 29 -28 54 -45 165 -112 463 -192 814 -218 544 -41
1049 65 1192 249 l21 28 8 -57 c6 -53 -1 -309 -11 -364 -2 -14 -7 -47 -10 -75
-16 -140 -92 -361 -170 -493 -130 -222 -429 -399 -745 -441 -64 -8 -175 -7
-215 2 -11 3 -40 10 -65 16 -94 21 -263 91 -305 125 -19 16 -19 16 13 12 17
-2 32 -1 32 3 0 4 -21 9 -47 10 -33 1 -61 10 -95 32 -47 31 -124 89 -117 89 2
0 37 -6 77 -14 40 -7 74 -11 76 -7 3 4 -5 8 -16 8 -23 2 -145 31 -168 40 -11
4 -8 8 10 13 l25 8 -28 1 c-18 1 -43 16 -74 46 -52 50 -51 52 9 28 48 -20 230
-25 247 -8 7 7 -24 10 -87 10 -75 1 -114 7 -171 25 -71 24 -75 27 -122 94 -27
38 -47 71 -44 74 2 2 23 -3 47 -13 68 -27 97 -34 103 -24 4 5 -3 9 -13 9 -11
0 -54 16 -96 35 -80 36 -101 61 -43 51 30 -6 30 -5 7 5 -14 6 -32 12 -40 13
-13 2 -67 86 -55 86 2 0 36 -13 77 -29 80 -32 196 -59 243 -56 67 5 66 8 -5
15 -88 9 -293 73 -321 101 -29 29 -25 52 9 45 59 -13 79 -16 142 -21 55 -4 47
-1 -45 16 -60 12 -116 27 -123 33 -12 12 -35 86 -27 86 2 0 23 -8 47 -18 53
-23 149 -49 208 -56 25 -4 -6 9 -72 28 -149 45 -188 61 -188 80 0 19 3 19 63
1 26 -8 47 -11 47 -7 0 4 -27 15 -60 26 -60 18 -60 18 -60 57 l0 40 28 -14
c41 -21 279 -79 310 -75 17 2 -34 20 -133 47 -208 56 -205 55 -205 86 0 30 -2
29 45 9 20 -8 39 -13 41 -11 3 2 -16 12 -41 21 -40 16 -45 21 -45 49 0 45 13
63 30 43 7 -9 26 -24 44 -35 36 -22 136 -53 136 -43 0 5 -21 13 -47 20 -68 18
-153 78 -153 108 0 13 6 24 13 24 9 0 9 2 0 8 -7 4 -10 16 -8 27 2 11 4 33 4
48 1 24 3 26 21 17 10 -6 23 -16 27 -23z m1715 -7 c-26 -11 -119 -25 -112 -17
3 3 25 8 50 12 25 4 47 9 49 11 2 2 11 4 20 3 10 0 8 -4 -7 -9z m-149 -27 c-7
-2 -21 -2 -30 0 -10 3 -4 5 12 5 17 0 24 -2 18 -5z m274 -39 c-61 -41 -208
-84 -342 -99 -33 -4 -71 -9 -85 -11 -32 -6 -269 -6 -295 -1 -11 3 -63 8 -115
12 -150 11 -218 18 -283 31 -12 2 -49 7 -82 10 -33 4 -62 9 -65 11 -5 5 137
-2 225 -11 170 -18 532 -27 615 -16 36 5 83 11 105 14 64 8 264 55 298 71 52
22 64 17 24 -11z m-1269 9 c-10 -2 -28 -2 -40 0 -13 2 -5 4 17 4 22 1 32 -1
23 -4z m1763 -24 c40 -21 53 -68 54 -189 0 -100 -3 -121 -23 -162 -31 -62 -88
-110 -187 -158 -44 -21 -81 -37 -81 -36 -1 0 7 42 16 91 10 50 22 133 25 185
4 52 8 118 10 146 4 61 32 97 90 117 48 17 74 18 96 6z"/>
<path d="M1604 3390 c-20 -8 -42 -30 -30 -30 13 0 56 24 56 32 0 9 1 9 -26 -2z"/>
<path d="M2906 3353 c-6 -6 172 -80 234 -98 l25 -7 -25 25 c-38 38 -215 99
-234 80z"/>
<path d="M1437 3317 c-69 -38 -137 -96 -137 -116 0 -10 11 -4 33 16 17 17 65
52 105 77 39 26 72 49 72 51 0 9 -16 3 -73 -28z"/>
<path d="M3747 3053 c108 -104 140 -258 89 -434 -14 -46 -23 -85 -21 -87 6 -7
53 84 64 123 24 88 8 217 -39 308 -22 43 -103 127 -121 127 -6 0 7 -17 28 -37z"/>
<path d="M3743 2403 c-9 -16 -22 -35 -27 -43 -10 -13 -9 -13 7 -1 18 14 52 71
42 71 -2 0 -12 -12 -22 -27z"/>
<path d="M3412 2282 c-35 -9 -62 -21 -60 -27 4 -12 14 -10 96 16 99 33 74 40
-36 11z"/>
<path d="M3259 2835 c0 -6 -2 -18 -4 -28 -2 -10 -6 -58 -9 -105 -14 -197 -43
-303 -126 -466 -46 -91 -47 -97 -23 -81 71 47 144 185 174 327 21 103 21 330
0 351 -6 6 -11 7 -12 2z"/>
<path d="M1762 2705 c9 -9 108 -42 193 -65 98 -26 236 -28 381 -5 12 2 47 6
78 10 31 4 56 12 56 17 0 5 -3 7 -7 5 -13 -8 -200 -19 -314 -18 -67 0 -131 6
-170 17 -130 34 -230 52 -217 39z"/>
<path d="M2818 2685 c-4 -4 -64 -10 -148 -15 -26 -1 -30 -3 -16 -9 22 -8 152
6 175 19 9 5 11 10 5 10 -6 0 -13 -2 -16 -5z"/>
<path d="M1358 2613 c7 -3 16 -2 19 1 4 3 -2 6 -13 5 -11 0 -14 -3 -6 -6z"/>
<path d="M1678 2503 c7 -3 16 -2 19 1 4 3 -2 6 -13 5 -11 0 -14 -3 -6 -6z"/>
<path d="M1508 2443 c6 -2 18 -2 25 0 6 3 1 5 -13 5 -14 0 -19 -2 -12 -5z"/>
<path d="M1410 2286 c0 -2 7 -7 16 -10 8 -3 12 -2 9 4 -6 10 -25 14 -25 6z"/>
<path d="M1610 2203 c0 -5 14 -8 30 -8 17 0 30 3 30 8 0 4 -13 7 -30 7 -16 0
-30 -3 -30 -7z"/>
<path d="M2890 1963 c-30 -19 -71 -41 -90 -50 -29 -13 -32 -16 -17 -24 19 -11
76 18 137 70 50 42 34 44 -30 4z"/>
<path d="M1165 2065 c-132 -34 -145 -40 -145 -70 0 -30 -2 -30 52 -6 24 10 72
28 108 41 67 23 90 36 90 51 0 11 1 12 -105 -16z"/>
<path d="M1326 2029 c-62 -10 -141 -35 -173 -56 -33 -22 -23 -26 16 -7 17 9
75 25 129 36 53 10 98 21 100 22 9 9 -29 11 -72 5z"/>
<path d="M3355 1991 c-15 -6 -9 -9 23 -14 82 -10 228 -118 262 -192 29 -65 26
-123 -9 -172 -32 -44 -67 -63 -186 -104 -59 -20 -75 -29 -62 -34 26 -11 124 0
182 20 57 19 76 34 116 89 62 84 27 227 -73 306 -87 70 -207 117 -253 101z"/>
<path d="M1169 1930 c-103 -32 -149 -62 -149 -96 0 -24 0 -24 46 11 47 36 81
53 167 85 80 29 28 29 -64 0z"/>
<path d="M1387 1773 c-12 -11 -8 -21 15 -43 26 -24 136 -60 182 -59 22 0 9 6
-41 19 -98 26 -160 60 -147 81 6 11 0 12 -9 2z"/>
<path d="M3080 1725 c-14 -15 -56 -36 -99 -51 -65 -21 -70 -24 -33 -20 53 5
131 44 150 74 19 29 11 28 -18 -3z"/>
<path d="M1662 1565 c9 -9 89 -11 94 -3 3 4 -18 8 -47 8 -29 0 -50 -2 -47 -5z"/>
<path d="M2578 1560 c-26 -3 -50 -9 -54 -13 -9 -9 166 3 184 12 14 8 -63 8
-130 1z"/>
</g>
</svg>
